<svg display="none" xmlns="http://www.w3.org/2000/svg" xmlns:xlink="http://www.w3.org/1999/xlink">
    <symbol id="close" viewBox="0 0 12 12" fill="none">
        <path d="M12 1.20857L10.7914 0L6 4.79143L1.20857 0L0 1.20857L4.79143 6L0 10.7914L1.20857 12L6 7.20857L10.7914 12L12 10.7914L7.20857 6L12 1.20857Z" fill="currentColor"/>
    </symbol>
    <symbol id="eye" viewBox="0 0 20 20" fill="none">
        <g clip-path="url(#clip0_3449_1690)">
            <path d="M0.916992 11C0.916992 11 4.58366 3.66669 11.0003 3.66669C17.417 3.66669 21.0837 11 21.0837 11C21.0837 11 17.417 18.3334 11.0003 18.3334C4.58366 18.3334 0.916992 11 0.916992 11Z" stroke="currentColor" stroke-width="2" stroke-linecap="round" stroke-linejoin="round"/>
            <path d="M11 13.75C12.5188 13.75 13.75 12.5188 13.75 11C13.75 9.48122 12.5188 8.25 11 8.25C9.48122 8.25 8.25 9.48122 8.25 11C8.25 12.5188 9.48122 13.75 11 13.75Z" stroke="currentColor" stroke-width="2" stroke-linecap="round" stroke-linejoin="round"/>
        </g>
        <defs>
            <clipPath id="clip0_3449_1690">
                <rect width="22" height="22" fill="white"/>
            </clipPath>
        </defs>
    </symbol>

    <symbol id="eye-off" viewBox="0 0 20 20" fill="none">
        <g clip-path="url(#clip0_3449_1674)">
            <path d="M16.4448 16.445C14.8779 17.6394 12.9699 18.3011 10.9998 18.3333C4.58317 18.3333 0.916504 11 0.916504 11C2.05674 8.87505 3.63821 7.01854 5.55484 5.55498M9.07484 3.88665C9.70581 3.73896 10.3518 3.66513 10.9998 3.66665C17.4165 3.66665 21.0832 11 21.0832 11C20.5267 12.041 19.8631 13.021 19.1032 13.9241M12.9432 12.9433C12.6914 13.2135 12.3878 13.4302 12.0505 13.5805C11.7131 13.7308 11.349 13.8116 10.9798 13.8182C10.6105 13.8247 10.2437 13.7567 9.90131 13.6184C9.55889 13.4801 9.24783 13.2743 8.9867 13.0131C8.72556 12.752 8.5197 12.4409 8.38139 12.0985C8.24308 11.7561 8.17515 11.3893 8.18167 11.0201C8.18818 10.6508 8.269 10.2867 8.41931 9.94934C8.56961 9.61201 8.78632 9.30841 9.0565 9.05665" stroke="currentColor" stroke-width="2" stroke-linecap="round" stroke-linejoin="round"/>
            <path d="M0.916504 0.916687L21.0832 21.0834" stroke="currentColor" stroke-width="2" stroke-linecap="round" stroke-linejoin="round"/>
        </g>
        <defs>
            <clipPath id="clip0_3449_1674">
                <rect width="22" height="22" fill="white"/>
            </clipPath>
        </defs>
    </symbol>

    <symbol id="photo" viewBox="0 0 20 20" fill="none">
        <g clip-path="url(#clip0_5072_2664)">
            <path d="M12.293 14.0625C14.0189 14.0625 15.418 12.6634 15.418 10.9375C15.418 9.21161 14.0189 7.8125 12.293 7.8125C10.5671 7.8125 9.16797 9.21161 9.16797 10.9375C9.16797 12.6634 10.5671 14.0625 12.293 14.0625Z" fill="currentColor"/>
            <path d="M17.8706 5.10547H16.7739C16.6861 5.10235 16.6012 5.07331 16.5299 5.022C16.4585 4.97068 16.404 4.8994 16.3731 4.81714C15.8581 3.73047 15.3256 2.60547 14.1673 2.60547H10.0006C9.1081 2.60547 8.63727 3.2538 7.78477 4.4313C7.46477 4.87047 7.35977 5.10547 7.08143 5.10547H2.08143C0.362268 5.10547 0.00060159 6.11297 0.00060159 6.95797V15.6146C-0.0187353 15.8932 0.0243009 16.1727 0.126577 16.4326C0.228853 16.6924 0.387795 16.9262 0.591831 17.1169C0.795867 17.3076 1.03986 17.4505 1.30605 17.535C1.57224 17.6195 1.85393 17.6436 2.1306 17.6055H17.8706C18.1473 17.6436 18.429 17.6195 18.6952 17.535C18.9613 17.4505 19.2053 17.3076 19.4094 17.1169C19.6134 16.9262 19.7723 16.6924 19.8746 16.4326C19.9769 16.1727 20.0199 15.8932 20.0006 15.6146V6.95797C20.0006 6.11297 19.6314 5.10547 17.8706 5.10547ZM17.0839 10.9388C17.0839 11.8865 16.8029 12.8129 16.2764 13.6009C15.7499 14.3889 15.0015 15.0031 14.126 15.3657C13.2504 15.7284 12.287 15.8233 11.3575 15.6384C10.428 15.4535 9.57417 14.9971 8.90405 14.327C8.23392 13.6569 7.77756 12.8031 7.59267 11.8736C7.40778 10.9441 7.50267 9.98067 7.86534 9.10511C8.22801 8.22955 8.84217 7.48119 9.63016 6.95468C10.4181 6.42816 11.3446 6.14714 12.2923 6.14714C13.5627 6.14846 14.7807 6.65372 15.679 7.55204C16.5774 8.45037 17.0826 9.66838 17.0839 10.9388ZM4.16727 8.23047C4.16727 8.43649 4.10617 8.63789 3.99172 8.80919C3.87726 8.98049 3.71457 9.114 3.52423 9.19284C3.33389 9.27168 3.12445 9.29231 2.92238 9.25212C2.72032 9.21193 2.53471 9.11272 2.38903 8.96704C2.24335 8.82136 2.14414 8.63575 2.10395 8.43369C2.06376 8.23162 2.08439 8.02218 2.16323 7.83184C2.24207 7.6415 2.37558 7.47881 2.54688 7.36435C2.71818 7.2499 2.91958 7.1888 3.1256 7.1888C3.40187 7.1888 3.66682 7.29855 3.86217 7.4939C4.05752 7.68925 4.16727 7.9542 4.16727 8.23047Z" fill="currentColor"/>
            <path d="M2.08073 4.2562L4.58073 4.26953C4.69124 4.26953 4.79722 4.22563 4.87536 4.14749C4.9535 4.06935 4.9974 3.96337 4.9974 3.85286V3.64453C4.9974 3.31301 4.8657 2.99507 4.63128 2.76065C4.39686 2.52623 4.07892 2.39453 3.7474 2.39453H2.91406C2.58254 2.39453 2.2646 2.52623 2.03018 2.76065C1.79576 2.99507 1.66406 3.31301 1.66406 3.64453V3.83953C1.66406 3.95004 1.70796 4.05602 1.7861 4.13416C1.86424 4.2123 1.97022 4.2562 2.08073 4.2562Z" fill="currentColor"/>
        </g>
        <defs>
            <clipPath id="clip0_5072_2664">
                <rect width="20" height="20" fill="white"/>
            </clipPath>
        </defs>
    </symbol>

    <symbol id="calendar" viewBox="0 0 36 36" fill="none">
        <rect width="36" height="36" rx="10" fill="#3A7CCA"/>
        <path d="M11.3105 27.4082H24.8164C25.8971 27.4082 26.7174 27.1283 27.2773 26.5684C27.8372 26.015 28.1172 25.2044 28.1172 24.1367V12.2715C28.1172 11.2038 27.8372 10.3932 27.2773 9.83984C26.7174 9.27995 25.8971 9 24.8164 9H11.3105C10.2298 9 9.40625 9.27995 8.83984 9.83984C8.27995 10.3932 8 11.2038 8 12.2715V24.1367C8 25.2044 8.27995 26.015 8.83984 26.5684C9.40625 27.1283 10.2298 27.4082 11.3105 27.4082ZM11.3691 25.2402C10.985 25.2402 10.6888 25.1426 10.4805 24.9473C10.2721 24.7454 10.168 24.4395 10.168 24.0293V15.1426C10.168 14.7389 10.2721 14.4395 10.4805 14.2441C10.6888 14.0423 10.985 13.9414 11.3691 13.9414H24.7383C25.1289 13.9414 25.4284 14.0423 25.6367 14.2441C25.8451 14.4395 25.9492 14.7389 25.9492 15.1426V24.0293C25.9492 24.4395 25.8451 24.7454 25.6367 24.9473C25.4284 25.1426 25.1289 25.2402 24.7383 25.2402H11.3691ZM16.2031 17.2324H16.7695C16.9453 17.2324 17.069 17.1999 17.1406 17.1348C17.2122 17.0632 17.248 16.9427 17.248 16.7734V16.1973C17.248 16.0215 17.2122 15.901 17.1406 15.8359C17.069 15.7708 16.9453 15.7383 16.7695 15.7383H16.2031C16.0273 15.7383 15.9036 15.7708 15.832 15.8359C15.7604 15.901 15.7246 16.0215 15.7246 16.1973V16.7734C15.7246 16.9427 15.7604 17.0632 15.832 17.1348C15.9036 17.1999 16.0273 17.2324 16.2031 17.2324ZM19.3574 17.2324H19.9336C20.1094 17.2324 20.2298 17.1999 20.2949 17.1348C20.3665 17.0632 20.4023 16.9427 20.4023 16.7734V16.1973C20.4023 16.0215 20.3665 15.901 20.2949 15.8359C20.2298 15.7708 20.1094 15.7383 19.9336 15.7383H19.3574C19.1816 15.7383 19.0579 15.7708 18.9863 15.8359C18.9212 15.901 18.8887 16.0215 18.8887 16.1973V16.7734C18.8887 16.9427 18.9212 17.0632 18.9863 17.1348C19.0579 17.1999 19.1816 17.2324 19.3574 17.2324ZM22.5117 17.2324H23.0781C23.2604 17.2324 23.3841 17.1999 23.4492 17.1348C23.5208 17.0632 23.5566 16.9427 23.5566 16.7734V16.1973C23.5566 16.0215 23.5208 15.901 23.4492 15.8359C23.3841 15.7708 23.2604 15.7383 23.0781 15.7383H22.5117C22.3359 15.7383 22.2122 15.7708 22.1406 15.8359C22.069 15.901 22.0332 16.0215 22.0332 16.1973V16.7734C22.0332 16.9427 22.069 17.0632 22.1406 17.1348C22.2122 17.1999 22.3359 17.2324 22.5117 17.2324ZM13.0488 20.3379H13.625C13.8008 20.3379 13.9212 20.3053 13.9863 20.2402C14.0514 20.1686 14.084 20.0449 14.084 19.8691V19.3027C14.084 19.127 14.0514 19.0065 13.9863 18.9414C13.9212 18.8763 13.8008 18.8438 13.625 18.8438H13.0488C12.8665 18.8438 12.7396 18.8763 12.668 18.9414C12.6029 19.0065 12.5703 19.127 12.5703 19.3027V19.8691C12.5703 20.0449 12.6029 20.1686 12.668 20.2402C12.7396 20.3053 12.8665 20.3379 13.0488 20.3379ZM16.2031 20.3379H16.7695C16.9453 20.3379 17.069 20.3053 17.1406 20.2402C17.2122 20.1686 17.248 20.0449 17.248 19.8691V19.3027C17.248 19.127 17.2122 19.0065 17.1406 18.9414C17.069 18.8763 16.9453 18.8438 16.7695 18.8438H16.2031C16.0273 18.8438 15.9036 18.8763 15.832 18.9414C15.7604 19.0065 15.7246 19.127 15.7246 19.3027V19.8691C15.7246 20.0449 15.7604 20.1686 15.832 20.2402C15.9036 20.3053 16.0273 20.3379 16.2031 20.3379ZM19.3574 20.3379H19.9336C20.1094 20.3379 20.2298 20.3053 20.2949 20.2402C20.3665 20.1686 20.4023 20.0449 20.4023 19.8691V19.3027C20.4023 19.127 20.3665 19.0065 20.2949 18.9414C20.2298 18.8763 20.1094 18.8438 19.9336 18.8438H19.3574C19.1816 18.8438 19.0579 18.8763 18.9863 18.9414C18.9212 19.0065 18.8887 19.127 18.8887 19.3027V19.8691C18.8887 20.0449 18.9212 20.1686 18.9863 20.2402C19.0579 20.3053 19.1816 20.3379 19.3574 20.3379ZM22.5117 20.3379H23.0781C23.2604 20.3379 23.3841 20.3053 23.4492 20.2402C23.5208 20.1686 23.5566 20.0449 23.5566 19.8691V19.3027C23.5566 19.127 23.5208 19.0065 23.4492 18.9414C23.3841 18.8763 23.2604 18.8438 23.0781 18.8438H22.5117C22.3359 18.8438 22.2122 18.8763 22.1406 18.9414C22.069 19.0065 22.0332 19.127 22.0332 19.3027V19.8691C22.0332 20.0449 22.069 20.1686 22.1406 20.2402C22.2122 20.3053 22.3359 20.3379 22.5117 20.3379ZM13.0488 23.4434H13.625C13.8008 23.4434 13.9212 23.4108 13.9863 23.3457C14.0514 23.2806 14.084 23.1569 14.084 22.9746V22.4082C14.084 22.2324 14.0514 22.112 13.9863 22.0469C13.9212 21.9818 13.8008 21.9492 13.625 21.9492H13.0488C12.8665 21.9492 12.7396 21.9818 12.668 22.0469C12.6029 22.112 12.5703 22.2324 12.5703 22.4082V22.9746C12.5703 23.1569 12.6029 23.2806 12.668 23.3457C12.7396 23.4108 12.8665 23.4434 13.0488 23.4434ZM16.2031 23.4434H16.7695C16.9453 23.4434 17.069 23.4108 17.1406 23.3457C17.2122 23.2806 17.248 23.1569 17.248 22.9746V22.4082C17.248 22.2324 17.2122 22.112 17.1406 22.0469C17.069 21.9818 16.9453 21.9492 16.7695 21.9492H16.2031C16.0273 21.9492 15.9036 21.9818 15.832 22.0469C15.7604 22.112 15.7246 22.2324 15.7246 22.4082V22.9746C15.7246 23.1569 15.7604 23.2806 15.832 23.3457C15.9036 23.4108 16.0273 23.4434 16.2031 23.4434ZM19.3574 23.4434H19.9336C20.1094 23.4434 20.2298 23.4108 20.2949 23.3457C20.3665 23.2806 20.4023 23.1569 20.4023 22.9746V22.4082C20.4023 22.2324 20.3665 22.112 20.2949 22.0469C20.2298 21.9818 20.1094 21.9492 19.9336 21.9492H19.3574C19.1816 21.9492 19.0579 21.9818 18.9863 22.0469C18.9212 22.112 18.8887 22.2324 18.8887 22.4082V22.9746C18.8887 23.1569 18.9212 23.2806 18.9863 23.3457C19.0579 23.4108 19.1816 23.4434 19.3574 23.4434Z" fill="white"/>
    </symbol>

    <symbol id="success" viewBox="0 0 1024 1024" fill="none">
        <path d="M469.333333 640l0.384 0.384L469.333333 640z m-106.282666 0l-0.384 0.384 0.384-0.384z m48.512 106.666667a87.466667 87.466667 0 0 1-61.653334-24.874667l-179.52-173.632a67.797333 67.797333 0 0 1 0-98.24c28.032-27.157333 73.493333-27.157333 101.589334 0l139.584 134.997333 319.168-308.544c28.032-27.157333 73.493333-27.157333 101.589333 0a67.925333 67.925333 0 0 1 0 98.24L472.981333 722.069333A87.530667 87.530667 0 0 1 411.562667 746.666667z" fill="currentColor" />
    </symbol>

    <symbol id="error" viewBox="0 0 24 22" fill="none">
        <path d="M10.2679 2.5C11.0377 1.16667 12.9623 1.16667 13.7321 2.5L22.3923 17.5C23.1621 18.8333 22.1999 20.5 20.6603 20.5H3.33975C1.80015 20.5 0.837895 18.8333 1.6077 17.5L10.2679 2.5Z" stroke="currentColor" stroke-width="2"/>
        <line x1="12" y1="8.5" x2="12" y2="12.5" stroke="currentColor" stroke-width="2" stroke-linecap="round"/>
        <circle cx="12" cy="16.5" r="1" fill="currentColor"/>
    </symbol>
</svg>
